<svg width="60" height="60" viewBox="0 0 60 60" fill="none" xmlns="http://www.w3.org/2000/svg">
<g clip-path="url(#clip0_2_344)">
<path d="M28.4575 1.5425C12.7425 1.5425 0 14.285 0 30C0 45.715 12.7425 58.4575 28.4575 58.4575C44.1725 58.4575 56.9075 45.715 56.9075 30C56.9121 26.233 56.1659 22.5028 54.7125 19.0275L46.705 27.035C46.86 28.0025 46.955 28.99 46.955 30C46.955 33.6578 45.8704 37.2334 43.8384 40.2748C41.8063 43.3161 38.9181 45.6867 35.5389 47.0867C32.1597 48.4867 28.4412 48.8532 24.8536 48.14C21.2661 47.4268 17.9706 45.6658 15.3838 43.0797C12.7971 40.4936 11.0352 37.1986 10.321 33.6113C9.60679 30.0239 9.97234 26.3053 11.3714 22.9257C12.7705 19.5461 15.1403 16.6573 18.1811 14.6244C21.2219 12.5915 24.7972 11.506 28.455 11.505C32.2025 11.505 35.6775 12.625 38.59 14.54L45.7325 7.3975C40.7777 3.59359 34.7041 1.53505 28.4575 1.5425ZM52.6425 3.4325C51.9125 3.4325 51.185 3.7125 50.63 4.2675C43.205 11.68 35.795 19.1025 28.38 26.5225L23.99 22.135C23.4561 21.6016 22.7322 21.302 21.9775 21.302C21.2228 21.302 20.4989 21.6016 19.965 22.135L15.5275 26.5675C14.9941 27.1014 14.6945 27.8253 14.6945 28.58C14.6945 29.3347 14.9941 30.0586 15.5275 30.5925L25.9425 41C26.2725 41.3308 26.6645 41.5932 27.0961 41.7723C27.5276 41.9513 27.9903 42.0435 28.4575 42.0435C28.9247 42.0435 29.3874 41.9513 29.8189 41.7723C30.2505 41.5932 30.6425 41.3308 30.9725 41L59.165 12.8025C59.43 12.5386 59.6403 12.225 59.7838 11.8796C59.9273 11.5343 60.0011 11.164 60.0011 10.79C60.0011 10.416 59.9273 10.0457 59.7838 9.70036C59.6403 9.355 59.43 9.04138 59.165 8.7775L54.6525 4.2675C54.3888 4.00299 54.0756 3.79309 53.7307 3.64981C53.3858 3.50652 53.016 3.43268 52.6425 3.4325Z" fill="#F0F0F0"/>
</g>
<defs>
<clipPath id="clip0_2_344">
<rect width="60" height="60" fill="white"/>
</clipPath>
</defs>
</svg>
